<?xml version="1.0" encoding="utf-8"?>
<!-- Generator: Adobe Illustrator 26.0.1, SVG Export Plug-In . SVG Version: 6.00 Build 0)  -->
<svg version="1.1" id="Calque_1" xmlns="http://www.w3.org/2000/svg" xmlns:xlink="http://www.w3.org/1999/xlink" x="0px" y="0px"
	 viewBox="0 0 626 195" style="enable-background:new 0 0 626 195;" xml:space="preserve">
<style type="text/css">
	.st0{fill-rule:evenodd;clip-rule:evenodd;fill:#F93821;}
	.st1{fill:#19153A;}
</style>
<path class="st0" d="M84.2,0c3.7,0,6.2,3.8,4.7,7.2l-50,118c-1.3,3-4.2,4.9-7.4,4.9H5.2c-3.7,0-6.2-3.8-4.7-7.2l50-118
	c1.3-3,4.2-4.9,7.4-4.9L84.2,0z M112.2,64.3c3.7,0,6.2,3.8,4.7,7.2l-50,118c-1.3,3-4.2,4.9-7.4,4.9H33.2c-3.7,0-6.2-3.8-4.7-7.2
	l50-118c1.3-3,4.2-4.9,7.4-4.9H112.2z"/>
<g>
	<path class="st1" d="M256.3,36.8c-5.6,0-10.1,4.6-10.1,10.2c0,5.5,4.5,10.1,10.1,10.1c5.8,0,10.2-4.7,10.2-10.1
		C266.5,41.4,262.1,36.8,256.3,36.8z"/>
	<rect x="248" y="64.3" class="st1" width="16.8" height="64.7"/>
	<path class="st1" d="M502.8,62.7c-10,0-16.8,5-20.8,10.7c-3.8-6.7-10.5-10.7-19.2-10.7c-7.4,0-13.2,2.9-16.9,7.6v-6h-16.8V129H446
		V94.7c0-5.2,1.3-9.3,3.5-12.1c2.2-2.8,5.2-4.3,9-4.3c3.6,0,6.3,1.4,8.1,3.7c1.9,2.4,2.9,6.1,2.9,10.7V129h16.8V94.1
		c0.1-5,1.4-8.9,3.6-11.6c2.2-2.7,5.2-4.2,8.9-4.2c3.6,0,6.3,1.3,8.2,3.6c1.8,2.4,2.9,5.9,2.9,10.3V129h16.8V89.5
		c0-8-2.1-14.7-6.2-19.4C516.3,65.4,510.3,62.7,502.8,62.7z"/>
	<polygon class="st1" points="211.5,104.7 197.5,64.3 185.2,64.3 171.2,104.7 157.5,64.3 140.2,64.3 163.7,129 177,129 191.1,88.7 
		205.1,129 218.6,129 242.1,64.3 225.1,64.3 	"/>
	<path class="st1" d="M399,71c-4.9-5.4-12.3-8.3-20.2-8.3c-17.9,0-31.6,14.9-31.6,33.9c0,19,13.7,33.9,31.6,33.9
		c8,0,15.3-3.3,20.2-8.8v7.2h16.6V64.3H399V71z M381.8,115.1c-10,0-17.8-8.1-17.8-18.5c0-10.4,7.8-18.5,17.8-18.5
		c10,0,17.8,8.1,17.8,18.5C399.6,107,391.9,115.1,381.8,115.1z"/>
	<path class="st1" d="M313.3,62.7c-7.9,0-14.1,3.1-18.2,7.9v-6.3h-16.8V129h16.8V95c0-5.2,1.4-9.3,3.8-12.2c2.4-2.8,5.8-4.4,9.9-4.4
		c4.2,0,7.4,1.4,9.6,3.8c2.2,2.5,3.4,6.1,3.4,10.8V129h16.8V90.2c0-8.3-2.3-15.2-6.7-20C327.5,65.4,321.1,62.7,313.3,62.7z"/>
	<path class="st1" d="M576.2,62.7c-8,0-15.3,3.3-20.2,8.7v-7.1h-16.7v91.3H556v-33.4c4.9,5.3,12.3,8.3,20.2,8.3
		c17.9,0,31.6-15,31.6-33.9C607.8,77.5,594.1,62.7,576.2,62.7z M573.1,78.2c10,0,17.8,8.1,17.8,18.5c0,10.4-7.8,18.5-17.8,18.5
		s-17.8-8.1-17.8-18.5C555.3,86.3,563.1,78.2,573.1,78.2z M576.2,129.5"/>
</g>
</svg>
